{
.appVersion = "1343";
DisplayStrings = (
"monkeys/space in/space flight",
"!"
);
date = "2020-07-26 21:51:37 +0000";
familyName = Newquay;
fontMaster = (
{
ascender = 800;
capHeight = 700;
descender = -200;
id = "CA145713-800E-4AD6-B2AC-DB97E56B9903";
xHeight = 500;
}
);
glyphs = (
{
glyphname = A;
lastChange = "2020-07-30 21:01:15 +0000";
layers = (
{
layerId = "CA145713-800E-4AD6-B2AC-DB97E56B9903";
paths = (
{
closed = 1;
nodes = (
"147 0 LINE",
"184 105 LINE",
"454 105 LINE",
"496 0 LINE",
"793 0 LINE",
"513 700 LINE",
"253 700 LINE",
"10 0 LINE"
);
},
{
closed = 1;
nodes = (
"309 465 LINE",
"408 220 LINE",
"224 220 LINE"
);
}
);
width = 803;
}
);
unicode = 0041;
},
{
glyphname = B;
lastChange = "2020-07-26 22:33:16 +0000";
layers = (
{
layerId = "CA145713-800E-4AD6-B2AC-DB97E56B9903";
paths = (
{
closed = 1;
nodes = (
"430 0 LINE SMOOTH",
"675 0 OFFCURVE",
"829 56 OFFCURVE",
"829 212 CURVE SMOOTH",
"829 287 OFFCURVE",
"782 344 OFFCURVE",
"697 377 CURVE",
"738 408 OFFCURVE",
"764 449 OFFCURVE",
"764 502 CURVE SMOOTH",
"764 670 OFFCURVE",
"593 700 OFFCURVE",
"420 700 CURVE SMOOTH",
"60 700 LINE",
"60 0 LINE"
);
},
{
closed = 1;
nodes = (
"339 305 LINE",
"390 305 LINE SMOOTH",
"468 305 OFFCURVE",
"520 271 OFFCURVE",
"520 212 CURVE SMOOTH",
"520 147 OFFCURVE",
"458 115 OFFCURVE",
"384 115 CURVE SMOOTH",
"339 115 LINE"
);
},
{
closed = 1;
nodes = (
"339 599 LINE",
"390 599 LINE SMOOTH",
"468 599 OFFCURVE",
"511 570 OFFCURVE",
"511 510 CURVE SMOOTH",
"511 508 LINE SMOOTH",
"511 444 OFFCURVE",
"458 415 OFFCURVE",
"384 415 CURVE SMOOTH",
"339 415 LINE"
);
}
);
width = 869;
}
);
leftMetricsKey = H;
rightMetricsKey = O;
unicode = "0042,0062";
},
{
glyphname = C;
lastChange = "2020-07-27 20:01:58 +0000";
layers = (
{
layerId = "CA145713-800E-4AD6-B2AC-DB97E56B9903";
paths = (
{
closed = 1;
nodes = (
"542 -15 OFFCURVE",
"650 21 OFFCURVE",
"714 58 CURVE",
"637 185 LINE",
"613 157 OFFCURVE",
"534 87 OFFCURVE",
"449 87 CURVE SMOOTH",
"400 87 OFFCURVE",
"359 115 OFFCURVE",
"359 150 CURVE SMOOTH",
"359 551 LINE SMOOTH",
"359 586 OFFCURVE",
"400 614 OFFCURVE",
"449 614 CURVE SMOOTH",
"534 614 OFFCURVE",
"613 544 OFFCURVE",
"637 516 CURVE",
"714 643 LINE",
"650 680 OFFCURVE",
"542 716 OFFCURVE",
"449 716 CURVE SMOOTH",
"194 716 OFFCURVE",
"40 552 OFFCURVE",
"40 351 CURVE SMOOTH",
"40 149 OFFCURVE",
"194 -15 OFFCURVE",
"449 -15 CURVE SMOOTH"
);
}
);
width = 754;
}
);
leftMetricsKey = O;
rightMetricsKey = "=H-20";
unicode = "0043,0063";
},
{
glyphname = D;
lastChange = "2020-07-27 15:29:39 +0000";
layers = (
{
layerId = "CA145713-800E-4AD6-B2AC-DB97E56B9903";
paths = (
{
closed = 1;
nodes = (
"430 0 LINE SMOOTH",
"686 0 OFFCURVE",
"840 154 OFFCURVE",
"840 356 CURVE SMOOTH",
"840 558 OFFCURVE",
"686 699 OFFCURVE",
"430 699 CURVE",
"430 700 LINE",
"60 700 LINE",
"60 0 LINE"
);
},
{
closed = 1;
nodes = (
"339 599 LINE",
"430 599 LINE SMOOTH",
"480 599 OFFCURVE",
"521 571 OFFCURVE",
"521 537 CURVE SMOOTH",
"521 181 LINE SMOOTH",
"521 147 OFFCURVE",
"480 115 OFFCURVE",
"430 115 CURVE SMOOTH",
"339 115 LINE"
);
}
);
width = 880;
}
);
leftMetricsKey = H;
rightMetricsKey = O;
unicode = "0044,0064";
},
{
glyphname = E;
lastChange = "2020-07-26 22:18:07 +0000";
layers = (
{
layerId = "CA145713-800E-4AD6-B2AC-DB97E56B9903";
paths = (
{
closed = 1;
nodes = (
"553 0 LINE",
"553 115 LINE",
"339 115 LINE",
"339 305 LINE",
"553 305 LINE",
"553 415 LINE",
"339 415 LINE",
"339 599 LINE",
"553 599 LINE",
"553 700 LINE",
"60 700 LINE",
"60 0 LINE"
);
}
);
width = 613;
}
);
leftMetricsKey = H;
rightMetricsKey = H;
unicode = "0045,0065";
},
{
glyphname = F;
lastChange = "2020-07-26 22:18:14 +0000";
layers = (
{
layerId = "CA145713-800E-4AD6-B2AC-DB97E56B9903";
paths = (
{
closed = 1;
nodes = (
"339 0 LINE",
"339 305 LINE",
"553 305 LINE",
"553 415 LINE",
"339 415 LINE",
"339 599 LINE",
"553 599 LINE",
"553 700 LINE",
"60 700 LINE",
"60 0 LINE"
);
}
);
width = 583;
}
);
leftMetricsKey = H;
unicode = "0046,0066";
},
{
glyphname = G;
lastChange = "2020-07-27 20:01:44 +0000";
layers = (
{
layerId = "CA145713-800E-4AD6-B2AC-DB97E56B9903";
paths = (
{
closed = 1;
nodes = (
"603 -15 OFFCURVE",
"715 30 OFFCURVE",
"799 109 CURVE",
"799 356 LINE",
"539 356 LINE",
"539 138 LINE SMOOTH",
"539 103 OFFCURVE",
"499 75 OFFCURVE",
"449 75 CURVE SMOOTH",
"400 75 OFFCURVE",
"359 103 OFFCURVE",
"359 138 CURVE SMOOTH",
"359 551 LINE SMOOTH",
"359 586 OFFCURVE",
"400 614 OFFCURVE",
"449 614 CURVE SMOOTH",
"533 614 OFFCURVE",
"613 544 OFFCURVE",
"636 516 CURVE",
"714 643 LINE",
"650 680 OFFCURVE",
"542 716 OFFCURVE",
"449 716 CURVE SMOOTH",
"194 716 OFFCURVE",
"40 552 OFFCURVE",
"40 351 CURVE SMOOTH",
"40 149 OFFCURVE",
"194 -15 OFFCURVE",
"449 -15 CURVE SMOOTH"
);
}
);
width = 839;
}
);
leftMetricsKey = O;
rightMetricsKey = O;
unicode = "0047,0067";
},
{
glyphname = H;
lastChange = "2020-07-26 22:16:04 +0000";
layers = (
{
layerId = "CA145713-800E-4AD6-B2AC-DB97E56B9903";
paths = (
{
closed = 1;
nodes = (
"339 0 LINE",
"339 305 LINE",
"519 305 LINE",
"519 0 LINE",
"798 0 LINE",
"798 700 LINE",
"519 700 LINE",
"519 415 LINE",
"339 415 LINE",
"339 700 LINE",
"60 700 LINE",
"60 0 LINE"
);
}
);
width = 858;
}
);
unicode = "0048,0068";
},
{
glyphname = I;
lastChange = "2020-07-26 22:16:13 +0000";
layers = (
{
layerId = "CA145713-800E-4AD6-B2AC-DB97E56B9903";
paths = (
{
closed = 1;
nodes = (
"340 0 LINE",
"340 700 LINE",
"60 700 LINE",
"60 0 LINE"
);
}
);
width = 400;
}
);
leftMetricsKey = H;
rightMetricsKey = H;
unicode = "0049,0069";
},
{
glyphname = J;
lastChange = "2020-07-27 00:34:45 +0000";
layers = (
{
layerId = "CA145713-800E-4AD6-B2AC-DB97E56B9903";
paths = (
{
closed = 1;
nodes = (
"433 -25 OFFCURVE",
"550 120 OFFCURVE",
"550 322 CURVE SMOOTH",
"550 700 LINE",
"271 700 LINE",
"271 178 LINE SMOOTH",
"271 119 OFFCURVE",
"228 77 OFFCURVE",
"178 77 CURVE SMOOTH",
"139 77 OFFCURVE",
"101 92 OFFCURVE",
"69 111 CURVE",
"10 5 LINE",
"63 -12 OFFCURVE",
"123 -25 OFFCURVE",
"178 -25 CURVE SMOOTH"
);
}
);
width = 600;
}
);
unicode = "004A,006A";
},
{
glyphname = K;
lastChange = "2020-07-27 15:29:39 +0000";
layers = (
{
layerId = "CA145713-800E-4AD6-B2AC-DB97E56B9903";
paths = (
{
closed = 1;
nodes = (
"442 293 LINE",
"774 700 LINE",
"605 700 LINE",
"274 293 LINE"
);
},
{
closed = 1;
nodes = (
"339 0 LINE",
"339 700 LINE",
"60 700 LINE",
"60 0 LINE"
);
},
{
closed = 1;
nodes = (
"763 -11 OFFCURVE",
"817 -4 OFFCURVE",
"817 -4 CURVE",
"817 110 LINE",
"630 110 OFFCURVE",
"642 293 OFFCURVE",
"492 371 CURVE",
"466 378 OFFCURVE",
"374 324 OFFCURVE",
"339 324 CURVE",
"339 228 LINE",
"441 228 OFFCURVE",
"414 -11 OFFCURVE",
"732 -11 CURVE SMOOTH"
);
}
);
width = 857;
}
);
leftMetricsKey = H;
unicode = "004B,006B";
},
{
glyphname = L;
lastChange = "2020-07-26 22:16:32 +0000";
layers = (
{
layerId = "CA145713-800E-4AD6-B2AC-DB97E56B9903";
paths = (
{
closed = 1;
nodes = (
"553 0 LINE",
"553 115 LINE",
"340 115 LINE",
"340 700 LINE",
"60 700 LINE",
"60 0 LINE"
);
}
);
width = 573;
}
);
leftMetricsKey = H;
unicode = "004C,006C";
},
{
glyphname = M;
lastChange = "2020-07-27 00:18:21 +0000";
layers = (
{
layerId = "CA145713-800E-4AD6-B2AC-DB97E56B9903";
paths = (
{
closed = 1;
nodes = (
"206 0 LINE",
"206 349 LINE",
"478 0 LINE",
"676 334 LINE",
"676 0 LINE",
"956 0 LINE",
"956 700 LINE",
"735 700 LINE",
"514 325 LINE",
"206 700 LINE",
"60 700 LINE",
"60 0 LINE"
);
}
);
width = 1016;
}
);
leftMetricsKey = H;
rightMetricsKey = H;
unicode = "004D,006D";
},
{
glyphname = N;
lastChange = "2020-07-27 15:48:04 +0000";
layers = (
{
layerId = "CA145713-800E-4AD6-B2AC-DB97E56B9903";
paths = (
{
closed = 1;
nodes = (
"206 0 LINE",
"206 349 LINE",
"612 0 LINE",
"758 0 LINE",
"758 700 LINE",
"612 700 LINE",
"612 357 LINE",
"206 700 LINE",
"60 700 LINE",
"60 0 LINE"
);
}
);
width = 818;
}
);
leftMetricsKey = H;
rightMetricsKey = H;
unicode = "004E,006E";
},
{
glyphname = O;
lastChange = "2020-07-27 20:01:14 +0000";
layers = (
{
layerId = "CA145713-800E-4AD6-B2AC-DB97E56B9903";
paths = (
{
closed = 1;
nodes = (
"705 -15 OFFCURVE",
"859 149 OFFCURVE",
"859 351 CURVE SMOOTH",
"859 552 OFFCURVE",
"705 716 OFFCURVE",
"450 716 CURVE SMOOTH",
"194 716 OFFCURVE",
"40 552 OFFCURVE",
"40 351 CURVE SMOOTH",
"40 149 OFFCURVE",
"194 -15 OFFCURVE",
"450 -15 CURVE SMOOTH"
);
},
{
closed = 1;
nodes = (
"400 75 OFFCURVE",
"360 103 OFFCURVE",
"360 138 CURVE SMOOTH",
"360 551 LINE SMOOTH",
"360 586 OFFCURVE",
"400 614 OFFCURVE",
"450 614 CURVE SMOOTH",
"500 614 OFFCURVE",
"540 586 OFFCURVE",
"540 551 CURVE SMOOTH",
"540 138 LINE SMOOTH",
"540 103 OFFCURVE",
"500 75 OFFCURVE",
"450 75 CURVE SMOOTH"
);
}
);
width = 899;
}
);
unicode = "004F,006F";
},
{
glyphname = P;
lastChange = "2020-07-26 22:32:59 +0000";
layers = (
{
layerId = "CA145713-800E-4AD6-B2AC-DB97E56B9903";
paths = (
{
closed = 1;
nodes = (
"339 0 LINE",
"339 191 LINE",
"430 191 LINE SMOOTH",
"676 191 OFFCURVE",
"830 287 OFFCURVE",
"830 443 CURVE SMOOTH",
"830 625 OFFCURVE",
"676 700 OFFCURVE",
"430 700 CURVE SMOOTH",
"60 700 LINE",
"60 0 LINE"
);
},
{
closed = 1;
nodes = (
"339 599 LINE",
"391 599 LINE SMOOTH",
"482 599 OFFCURVE",
"520 514 OFFCURVE",
"520 443 CURVE SMOOTH",
"520 365 OFFCURVE",
"458 287 OFFCURVE",
"385 287 CURVE SMOOTH",
"339 287 LINE"
);
}
);
width = 880;
}
);
leftMetricsKey = H;
unicode = "0050,0070";
},
{
glyphname = Q;
lastChange = "2020-07-27 20:01:01 +0000";
layers = (
{
layerId = "CA145713-800E-4AD6-B2AC-DB97E56B9903";
paths = (
{
closed = 1;
nodes = (
"791 -16 OFFCURVE",
"827 -12 OFFCURVE",
"845 -9 CURVE",
"845 121 LINE",
"821 121 OFFCURVE",
"800 122 OFFCURVE",
"781 125 CURVE",
"832 187 OFFCURVE",
"860 266 OFFCURVE",
"860 351 CURVE SMOOTH",
"860 553 OFFCURVE",
"705 716 OFFCURVE",
"450 716 CURVE SMOOTH",
"195 716 OFFCURVE",
"40 553 OFFCURVE",
"40 351 CURVE SMOOTH",
"40 149 OFFCURVE",
"195 -15 OFFCURVE",
"450 -15 CURVE SMOOTH",
"515 -15 OFFCURVE",
"574 -4 OFFCURVE",
"625 15 CURVE",
"660 -3 OFFCURVE",
"704 -16 OFFCURVE",
"761 -16 CURVE SMOOTH"
);
},
{
closed = 1;
nodes = (
"410 75 OFFCURVE",
"376 93 OFFCURVE",
"364 118 CURVE",
"378 130 OFFCURVE",
"398 141 OFFCURVE",
"428 141 CURVE SMOOTH",
"464 141 OFFCURVE",
"490 122 OFFCURVE",
"519 97 CURVE",
"502 84 OFFCURVE",
"478 75 OFFCURVE",
"450 75 CURVE SMOOTH"
);
},
{
closed = 1;
nodes = (
"360 551 LINE SMOOTH",
"360 586 OFFCURVE",
"400 614 OFFCURVE",
"450 614 CURVE SMOOTH",
"500 614 OFFCURVE",
"540 586 OFFCURVE",
"540 551 CURVE SMOOTH",
"540 220 LINE",
"523 225 OFFCURVE",
"504 227 OFFCURVE",
"483 227 CURVE SMOOTH",
"429 227 OFFCURVE",
"389 207 OFFCURVE",
"360 185 CURVE"
);
}
);
width = 900;
}
);
leftMetricsKey = O;
rightMetricsKey = O;
unicode = "0051,0071";
},
{
glyphname = R;
lastChange = "2020-07-27 15:29:26 +0000";
layers = (
{
layerId = "CA145713-800E-4AD6-B2AC-DB97E56B9903";
paths = (
{
closed = 1;
nodes = (
"763 -11 OFFCURVE",
"797 -8 OFFCURVE",
"816 -4 CURVE",
"816 105 LINE",
"709 105 OFFCURVE",
"655 198 OFFCURVE",
"599 241 CURVE",
"752 267 OFFCURVE",
"840 354 OFFCURVE",
"840 462 CURVE SMOOTH",
"840 639 OFFCURVE",
"685 699 OFFCURVE",
"430 699 CURVE",
"430 700 LINE",
"60 700 LINE",
"60 0 LINE",
"339 0 LINE",
"339 228 LINE",
"441 228 OFFCURVE",
"414 -11 OFFCURVE",
"732 -11 CURVE SMOOTH"
);
},
{
closed = 1;
nodes = (
"339 599 LINE",
"390 599 LINE SMOOTH",
"468 599 OFFCURVE",
"520 554 OFFCURVE",
"520 462 CURVE SMOOTH",
"520 379 OFFCURVE",
"482 324 OFFCURVE",
"384 324 CURVE SMOOTH",
"339 324 LINE"
);
}
);
width = 880;
}
);
leftMetricsKey = H;
unicode = "0052,0072";
},
{
glyphname = S;
lastChange = "2020-07-27 19:59:58 +0000";
layers = (
{
layerId = "CA145713-800E-4AD6-B2AC-DB97E56B9903";
paths = (
{
closed = 1;
nodes = (
"554 -15 OFFCURVE",
"687 64 OFFCURVE",
"687 218 CURVE SMOOTH",
"687 459 OFFCURVE",
"337 483 OFFCURVE",
"337 553 CURVE SMOOTH",
"337 594 OFFCURVE",
"370 611 OFFCURVE",
"420 611 CURVE SMOOTH",
"459 611 OFFCURVE",
"561 575 OFFCURVE",
"593 555 CURVE",
"652 665 LINE",
"598 685 OFFCURVE",
"506 716 OFFCURVE",
"393 716 CURVE SMOOTH",
"192 716 OFFCURVE",
"58 637 OFFCURVE",
"58 483 CURVE SMOOTH",
"58 259 OFFCURVE",
"409 320 OFFCURVE",
"409 168 CURVE SMOOTH",
"409 131 OFFCURVE",
"377 100 OFFCURVE",
"313 100 CURVE SMOOTH",
"251 100 OFFCURVE",
"162 135 OFFCURVE",
"106 173 CURVE",
"40 51 LINE",
"98 30 OFFCURVE",
"230 -15 OFFCURVE",
"352 -15 CURVE SMOOTH"
);
}
);
width = 747;
}
);
unicode = "0053,0073";
},
{
glyphname = T;
lastChange = "2020-07-27 15:29:26 +0000";
layers = (
{
layerId = "CA145713-800E-4AD6-B2AC-DB97E56B9903";
paths = (
{
closed = 1;
nodes = (
"483 0 LINE",
"483 599 LINE",
"677 599 LINE",
"677 700 LINE",
"10 700 LINE",
"10 599 LINE",
"204 599 LINE",
"204 0 LINE"
);
}
);
width = 687;
}
);
unicode = "0054,0074";
},
{
glyphname = U;
lastChange = "2020-07-27 20:00:44 +0000";
layers = (
{
layerId = "CA145713-800E-4AD6-B2AC-DB97E56B9903";
paths = (
{
closed = 1;
nodes = (
"548 -15 OFFCURVE",
"651 94 OFFCURVE",
"651 217 CURVE SMOOTH",
"651 700 LINE",
"519 700 LINE",
"519 217 LINE SMOOTH",
"519 162 OFFCURVE",
"505 117 OFFCURVE",
"433 117 CURVE SMOOTH",
"370 117 OFFCURVE",
"339 166 OFFCURVE",
"339 217 CURVE SMOOTH",
"339 700 LINE",
"60 700 LINE",
"60 217 LINE SMOOTH",
"60 98 OFFCURVE",
"176 -15 OFFCURVE",
"362 -15 CURVE SMOOTH"
);
}
);
width = 711;
}
);
leftMetricsKey = H;
rightMetricsKey = H;
unicode = "0055,0075";
},
{
glyphname = V;
lastChange = "2020-07-27 15:29:26 +0000";
layers = (
{
layerId = "CA145713-800E-4AD6-B2AC-DB97E56B9903";
paths = (
{
closed = 1;
nodes = (
"509 0 LINE",
"716 700 LINE",
"578 700 LINE",
"440 232 LINE",
"299 700 LINE",
"10 700 LINE",
"230 0 LINE"
);
}
);
width = 726;
}
);
unicode = "0056,0076";
},
{
glyphname = W;
lastChange = "2020-07-27 15:29:26 +0000";
layers = (
{
layerId = "CA145713-800E-4AD6-B2AC-DB97E56B9903";
paths = (
{
closed = 1;
nodes = (
"470 0 LINE",
"559 301 LINE",
"654 0 LINE",
"915 0 LINE",
"1122 700 LINE",
"985 700 LINE",
"855 260 LINE",
"723 700 LINE",
"434 700 LINE",
"505 474 LINE",
"436 241 LINE",
"298 700 LINE",
"10 700 LINE",
"229 0 LINE"
);
}
);
width = 1132;
}
);
unicode = "0057,0077";
},
{
glyphname = X;
lastChange = "2020-07-27 19:57:50 +0000";
layers = (
{
layerId = "CA145713-800E-4AD6-B2AC-DB97E56B9903";
paths = (
{
closed = 1;
nodes = (
"717 0 LINE",
"353 700 LINE",
"16 700 LINE",
"390 0 LINE"
);
},
{
closed = 1;
nodes = (
"147 0 LINE",
"370 394 LINE",
"285 488 LINE",
"10 0 LINE"
);
},
{
closed = 1;
nodes = (
"693 700 LINE",
"556 700 LINE",
"367 365 LINE",
"451 271 LINE"
);
}
);
width = 727;
}
);
unicode = "0058,0078";
},
{
glyphname = Y;
lastChange = "2020-07-27 15:29:26 +0000";
layers = (
{
layerId = "CA145713-800E-4AD6-B2AC-DB97E56B9903";
paths = (
{
closed = 1;
nodes = (
"530 0 LINE",
"530 299 LINE",
"756 700 LINE",
"609 700 LINE",
"472 456 LINE",
"330 700 LINE",
"10 700 LINE",
"251 298 LINE",
"251 0 LINE"
);
}
);
width = 766;
}
);
unicode = "0059,0079";
},
{
glyphname = Z;
lastChange = "2020-07-27 13:10:14 +0000";
layers = (
{
layerId = "CA145713-800E-4AD6-B2AC-DB97E56B9903";
paths = (
{
closed = 1;
nodes = (
"319 0 LINE",
"538 700 LINE",
"250 700 LINE",
"40 0 LINE"
);
},
{
closed = 1;
nodes = (
"538 0 LINE",
"538 115 LINE",
"286 115 LINE",
"286 0 LINE"
);
},
{
closed = 1;
nodes = (
"260 599 LINE",
"260 700 LINE",
"46 700 LINE",
"46 599 LINE"
);
}
);
width = 578;
}
);
unicode = "005A,007A";
},
{
glyphname = zero;
lastChange = "2020-07-27 15:08:25 +0000";
layers = (
{
layerId = "CA145713-800E-4AD6-B2AC-DB97E56B9903";
paths = (
{
closed = 1;
nodes = (
"705 -10 OFFCURVE",
"859 154 OFFCURVE",
"859 356 CURVE SMOOTH",
"859 558 OFFCURVE",
"705 722 OFFCURVE",
"450 722 CURVE SMOOTH",
"194 722 OFFCURVE",
"40 558 OFFCURVE",
"40 356 CURVE SMOOTH",
"40 154 OFFCURVE",
"194 -10 OFFCURVE",
"450 -10 CURVE SMOOTH"
);
},
{
closed = 1;
nodes = (
"400 80 OFFCURVE",
"360 108 OFFCURVE",
"360 143 CURVE SMOOTH",
"360 557 LINE SMOOTH",
"360 592 OFFCURVE",
"400 620 OFFCURVE",
"450 620 CURVE SMOOTH",
"500 620 OFFCURVE",
"540 592 OFFCURVE",
"540 557 CURVE SMOOTH",
"540 143 LINE SMOOTH",
"540 108 OFFCURVE",
"500 80 OFFCURVE",
"450 80 CURVE SMOOTH"
);
}
);
width = 899;
}
);
unicode = 0030;
},
{
glyphname = one;
lastChange = "2020-07-27 15:13:43 +0000";
layers = (
{
layerId = "CA145713-800E-4AD6-B2AC-DB97E56B9903";
paths = (
{
closed = 1;
nodes = (
"369 0 LINE",
"369 700 LINE",
"89 700 LINE",
"89 0 LINE"
);
},
{
closed = 1;
nodes = (
"234 599 LINE",
"234 700 LINE",
"20 700 LINE",
"20 599 LINE"
);
}
);
width = 409;
}
);
unicode = 0031;
},
{
glyphname = two;
lastChange = "2020-07-27 15:29:26 +0000";
layers = (
{
layerId = "CA145713-800E-4AD6-B2AC-DB97E56B9903";
paths = (
{
closed = 1;
nodes = (
"339 0 LINE",
"344 232 OFFCURVE",
"633 343 OFFCURVE",
"633 500 CURVE SMOOTH",
"633 642 OFFCURVE",
"527 721 OFFCURVE",
"326 721 CURVE SMOOTH",
"213 721 OFFCURVE",
"121 690 OFFCURVE",
"67 670 CURVE",
"126 560 LINE",
"158 580 OFFCURVE",
"260 616 OFFCURVE",
"299 616 CURVE SMOOTH",
"349 616 OFFCURVE",
"382 599 OFFCURVE",
"382 558 CURVE SMOOTH",
"382 459 OFFCURVE",
"60 269 OFFCURVE",
"60 0 CURVE"
);
},
{
closed = 1;
nodes = (
"614 0 LINE",
"614 115 LINE",
"306 115 LINE",
"306 0 LINE"
);
}
);
width = 693;
}
);
unicode = 0032;
},
{
glyphname = three;
lastChange = "2020-07-27 15:29:26 +0000";
layers = (
{
layerId = "CA145713-800E-4AD6-B2AC-DB97E56B9903";
paths = (
{
closed = 1;
nodes = (
"572 -10 OFFCURVE",
"727 76 OFFCURVE",
"727 242 CURVE SMOOTH",
"727 394 OFFCURVE",
"568 457 OFFCURVE",
"421 457 CURVE SMOOTH",
"399 457 OFFCURVE",
"375 455 OFFCURVE",
"352 452 CURVE",
"419 402 LINE",
"651 590 LINE",
"651 702 LINE",
"119 700 LINE",
"119 599 LINE",
"422 599 LINE",
"216 436 LINE",
"216 341 LINE",
"375 341 OFFCURVE",
"419 281 OFFCURVE",
"419 200 CURVE SMOOTH",
"419 124 OFFCURVE",
"362 80 OFFCURVE",
"312 80 CURVE SMOOTH",
"233 80 OFFCURVE",
"152 115 OFFCURVE",
"100 190 CURVE",
"40 68 LINE",
"123 16 OFFCURVE",
"252 -10 OFFCURVE",
"347 -10 CURVE SMOOTH"
);
}
);
width = 767;
}
);
unicode = 0033;
},
{
glyphname = four;
lastChange = "2020-07-27 15:29:26 +0000";
layers = (
{
layerId = "CA145713-800E-4AD6-B2AC-DB97E56B9903";
paths = (
{
closed = 1;
nodes = (
"643 0 LINE",
"643 180 LINE",
"731 180 LINE",
"731 290 LINE",
"643 290 LINE",
"643 700 LINE",
"364 700 LINE",
"10 290 LINE",
"10 180 LINE",
"364 180 LINE",
"364 0 LINE"
);
},
{
closed = 1;
nodes = (
"463 642 LINE",
"364 651 LINE",
"364 290 LINE",
"109 290 LINE",
"130 256 LINE"
);
}
);
width = 771;
}
);
unicode = 0034;
},
{
glyphname = five;
lastChange = "2020-07-27 15:29:26 +0000";
layers = (
{
layerId = "CA145713-800E-4AD6-B2AC-DB97E56B9903";
paths = (
{
closed = 1;
nodes = (
"551 -10 OFFCURVE",
"706 76 OFFCURVE",
"706 242 CURVE SMOOTH",
"706 394 OFFCURVE",
"547 457 OFFCURVE",
"400 457 CURVE SMOOTH",
"351 457 OFFCURVE",
"291 448 OFFCURVE",
"254 437 CURVE",
"273 386 LINE",
"273 599 LINE",
"611 599 LINE",
"611 700 LINE",
"106 702 LINE",
"106 323 LINE",
"147 334 OFFCURVE",
"188 341 OFFCURVE",
"246 341 CURVE SMOOTH",
"346 341 OFFCURVE",
"398 281 OFFCURVE",
"398 200 CURVE SMOOTH",
"398 124 OFFCURVE",
"341 80 OFFCURVE",
"291 80 CURVE SMOOTH",
"212 80 OFFCURVE",
"131 115 OFFCURVE",
"79 190 CURVE",
"19 68 LINE",
"102 16 OFFCURVE",
"231 -10 OFFCURVE",
"326 -10 CURVE SMOOTH"
);
}
);
width = 727;
}
);
unicode = 0035;
},
{
glyphname = six;
lastChange = "2020-07-27 15:29:26 +0000";
layers = (
{
layerId = "CA145713-800E-4AD6-B2AC-DB97E56B9903";
paths = (
{
closed = 1;
nodes = (
"680 -10 OFFCURVE",
"833 80 OFFCURVE",
"833 213 CURVE SMOOTH",
"833 365 OFFCURVE",
"695 431 OFFCURVE",
"546 431 CURVE SMOOTH",
"436 431 OFFCURVE",
"355 410 OFFCURVE",
"289 344 CURVE",
"349 200 LINE",
"333 289 OFFCURVE",
"326 353 OFFCURVE",
"326 401 CURVE SMOOTH",
"326 508 OFFCURVE",
"363 616 OFFCURVE",
"491 616 CURVE SMOOTH",
"577 616 OFFCURVE",
"651 575 OFFCURVE",
"681 555 CURVE",
"740 665 LINE",
"686 685 OFFCURVE",
"631 721 OFFCURVE",
"479 721 CURVE SMOOTH",
"203 721 OFFCURVE",
"40 560 OFFCURVE",
"40 323 CURVE SMOOTH",
"40 90 OFFCURVE",
"193 -10 OFFCURVE",
"437 -10 CURVE SMOOTH"
);
},
{
closed = 1;
nodes = (
"386 80 OFFCURVE",
"349 136 OFFCURVE",
"349 212 CURVE SMOOTH",
"349 213 LINE SMOOTH",
"349 274 OFFCURVE",
"386 323 OFFCURVE",
"437 323 CURVE SMOOTH",
"491 323 OFFCURVE",
"524 281 OFFCURVE",
"524 200 CURVE SMOOTH",
"524 124 OFFCURVE",
"487 80 OFFCURVE",
"437 80 CURVE SMOOTH"
);
}
);
width = 873;
}
);
unicode = 0036;
},
{
glyphname = seven;
lastChange = "2020-07-27 15:07:21 +0000";
layers = (
{
layerId = "CA145713-800E-4AD6-B2AC-DB97E56B9903";
paths = (
{
closed = 1;
nodes = (
"379 0 LINE",
"580 700 LINE",
"292 700 LINE",
"100 0 LINE"
);
},
{
closed = 1;
nodes = (
"302 599 LINE",
"302 700 LINE",
"20 700 LINE",
"20 599 LINE"
);
}
);
width = 600;
}
);
unicode = 0037;
},
{
glyphname = eight;
lastChange = "2020-07-27 15:29:26 +0000";
layers = (
{
layerId = "CA145713-800E-4AD6-B2AC-DB97E56B9903";
paths = (
{
closed = 1;
nodes = (
"680 -10 OFFCURVE",
"833 69 OFFCURVE",
"833 200 CURVE SMOOTH",
"833 275 OFFCURVE",
"786 344 OFFCURVE",
"701 377 CURVE",
"742 408 OFFCURVE",
"768 455 OFFCURVE",
"768 508 CURVE SMOOTH",
"768 642 OFFCURVE",
"630 722 OFFCURVE",
"436 722 CURVE SMOOTH",
"211 722 OFFCURVE",
"105 631 OFFCURVE",
"105 508 CURVE SMOOTH",
"105 455 OFFCURVE",
"131 408 OFFCURVE",
"172 377 CURVE",
"87 344 OFFCURVE",
"40 275 OFFCURVE",
"40 200 CURVE SMOOTH",
"40 69 OFFCURVE",
"193 -10 OFFCURVE",
"437 -10 CURVE SMOOTH"
);
},
{
closed = 1;
nodes = (
"386 80 OFFCURVE",
"349 124 OFFCURVE",
"349 200 CURVE SMOOTH",
"349 269 OFFCURVE",
"383 311 OFFCURVE",
"437 311 CURVE SMOOTH",
"491 311 OFFCURVE",
"524 269 OFFCURVE",
"524 200 CURVE SMOOTH",
"524 124 OFFCURVE",
"487 80 OFFCURVE",
"437 80 CURVE SMOOTH"
);
},
{
closed = 1;
nodes = (
"389 413 OFFCURVE",
"358 459 OFFCURVE",
"358 508 CURVE SMOOTH",
"358 510 LINE SMOOTH",
"358 558 OFFCURVE",
"360 620 OFFCURVE",
"437 620 CURVE SMOOTH",
"506 620 OFFCURVE",
"515 558 OFFCURVE",
"515 510 CURVE SMOOTH",
"515 508 LINE SMOOTH",
"515 459 OFFCURVE",
"485 413 OFFCURVE",
"437 413 CURVE SMOOTH"
);
}
);
width = 834;
}
);
unicode = 0038;
},
{
glyphname = nine;
lastChange = "2020-07-27 15:29:26 +0000";
layers = (
{
layerId = "CA145713-800E-4AD6-B2AC-DB97E56B9903";
paths = (
{
closed = 1;
nodes = (
"670 -10 OFFCURVE",
"833 151 OFFCURVE",
"833 388 CURVE SMOOTH",
"833 621 OFFCURVE",
"680 721 OFFCURVE",
"436 721 CURVE SMOOTH",
"193 721 OFFCURVE",
"40 635 OFFCURVE",
"40 476 CURVE SMOOTH",
"40 324 OFFCURVE",
"178 266 OFFCURVE",
"327 266 CURVE SMOOTH",
"437 266 OFFCURVE",
"533 301 OFFCURVE",
"584 367 CURVE",
"524 511 LINE",
"540 422 OFFCURVE",
"547 358 OFFCURVE",
"547 310 CURVE SMOOTH",
"547 203 OFFCURVE",
"510 95 OFFCURVE",
"382 95 CURVE SMOOTH",
"296 95 OFFCURVE",
"195 136 OFFCURVE",
"165 156 CURVE",
"106 46 LINE",
"160 26 OFFCURVE",
"242 -10 OFFCURVE",
"394 -10 CURVE SMOOTH"
);
},
{
closed = 1;
nodes = (
"382 388 OFFCURVE",
"349 436 OFFCURVE",
"349 505 CURVE SMOOTH",
"349 581 OFFCURVE",
"386 631 OFFCURVE",
"436 631 CURVE SMOOTH",
"487 631 OFFCURVE",
"524 587 OFFCURVE",
"524 511 CURVE SMOOTH",
"524 498 LINE SMOOTH",
"524 437 OFFCURVE",
"487 388 OFFCURVE",
"436 388 CURVE SMOOTH"
);
}
);
width = 873;
}
);
unicode = 0039;
},
{
glyphname = period;
lastChange = "2020-07-26 23:39:23 +0000";
layers = (
{
layerId = "CA145713-800E-4AD6-B2AC-DB97E56B9903";
paths = (
{
closed = 1;
nodes = (
"189 -2 OFFCURVE",
"226 35 OFFCURVE",
"226 81 CURVE SMOOTH",
"226 127 OFFCURVE",
"189 164 OFFCURVE",
"143 164 CURVE SMOOTH",
"97 164 OFFCURVE",
"60 127 OFFCURVE",
"60 81 CURVE SMOOTH",
"60 35 OFFCURVE",
"97 -2 OFFCURVE",
"143 -2 CURVE SMOOTH"
);
}
);
width = 286;
}
);
unicode = 002E;
},
{
glyphname = comma;
lastChange = "2020-07-27 15:29:26 +0000";
layers = (
{
layerId = "CA145713-800E-4AD6-B2AC-DB97E56B9903";
paths = (
{
closed = 1;
nodes = (
"171 -62 OFFCURVE",
"213 -18 OFFCURVE",
"213 61 CURVE SMOOTH",
"213 130 OFFCURVE",
"171 164 OFFCURVE",
"123 164 CURVE SMOOTH",
"77 164 OFFCURVE",
"40 127 OFFCURVE",
"40 81 CURVE SMOOTH",
"40 35 OFFCURVE",
"77 -2 OFFCURVE",
"123 -2 CURVE SMOOTH",
"127 -2 OFFCURVE",
"131 -2 OFFCURVE",
"135 -1 CURVE",
"137 -11 OFFCURVE",
"138 -22 OFFCURVE",
"138 -33 CURVE SMOOTH",
"138 -51 OFFCURVE",
"135 -69 OFFCURVE",
"131 -83 CURVE"
);
}
);
width = 273;
}
);
unicode = 002C;
},
{
glyphname = colon;
lastChange = "2020-07-26 23:50:23 +0000";
layers = (
{
layerId = "CA145713-800E-4AD6-B2AC-DB97E56B9903";
paths = (
{
closed = 1;
nodes = (
"169 328 OFFCURVE",
"206 365 OFFCURVE",
"206 411 CURVE SMOOTH",
"206 457 OFFCURVE",
"169 494 OFFCURVE",
"123 494 CURVE SMOOTH",
"77 494 OFFCURVE",
"40 457 OFFCURVE",
"40 411 CURVE SMOOTH",
"40 365 OFFCURVE",
"77 328 OFFCURVE",
"123 328 CURVE SMOOTH"
);
},
{
closed = 1;
nodes = (
"169 -2 OFFCURVE",
"206 35 OFFCURVE",
"206 81 CURVE SMOOTH",
"206 127 OFFCURVE",
"169 164 OFFCURVE",
"123 164 CURVE SMOOTH",
"77 164 OFFCURVE",
"40 127 OFFCURVE",
"40 81 CURVE SMOOTH",
"40 35 OFFCURVE",
"77 -2 OFFCURVE",
"123 -2 CURVE SMOOTH"
);
}
);
width = 253;
}
);
unicode = 003A;
},
{
glyphname = semicolon;
lastChange = "2020-07-27 15:29:26 +0000";
layers = (
{
layerId = "CA145713-800E-4AD6-B2AC-DB97E56B9903";
paths = (
{
closed = 1;
nodes = (
"171 -62 OFFCURVE",
"213 -18 OFFCURVE",
"213 61 CURVE SMOOTH",
"213 130 OFFCURVE",
"171 164 OFFCURVE",
"123 164 CURVE SMOOTH",
"77 164 OFFCURVE",
"40 127 OFFCURVE",
"40 81 CURVE SMOOTH",
"40 35 OFFCURVE",
"77 -2 OFFCURVE",
"123 -2 CURVE SMOOTH",
"127 -2 OFFCURVE",
"131 -2 OFFCURVE",
"135 -1 CURVE",
"137 -11 OFFCURVE",
"138 -22 OFFCURVE",
"138 -33 CURVE SMOOTH",
"138 -51 OFFCURVE",
"135 -69 OFFCURVE",
"131 -83 CURVE"
);
},
{
closed = 1;
nodes = (
"169 328 OFFCURVE",
"206 365 OFFCURVE",
"206 411 CURVE SMOOTH",
"206 457 OFFCURVE",
"169 494 OFFCURVE",
"123 494 CURVE SMOOTH",
"77 494 OFFCURVE",
"40 457 OFFCURVE",
"40 411 CURVE SMOOTH",
"40 365 OFFCURVE",
"77 328 OFFCURVE",
"123 328 CURVE SMOOTH"
);
}
);
width = 253;
}
);
unicode = 003B;
},
{
glyphname = exclam;
lastChange = "2020-07-27 15:28:11 +0000";
layers = (
{
layerId = "CA145713-800E-4AD6-B2AC-DB97E56B9903";
paths = (
{
closed = 1;
nodes = (
"275 232 LINE",
"305 700 LINE",
"60 700 LINE",
"90 232 LINE"
);
},
{
closed = 1;
nodes = (
"229 -2 OFFCURVE",
"266 35 OFFCURVE",
"266 81 CURVE SMOOTH",
"266 127 OFFCURVE",
"229 164 OFFCURVE",
"183 164 CURVE SMOOTH",
"137 164 OFFCURVE",
"100 127 OFFCURVE",
"100 81 CURVE SMOOTH",
"100 35 OFFCURVE",
"137 -2 OFFCURVE",
"183 -2 CURVE SMOOTH"
);
}
);
width = 365;
}
);
unicode = 0021;
},
{
glyphname = question;
lastChange = "2020-07-27 15:29:26 +0000";
layers = (
{
layerId = "CA145713-800E-4AD6-B2AC-DB97E56B9903";
paths = (
{
closed = 1;
nodes = (
"365 226 LINE",
"361 239 OFFCURVE",
"359 251 OFFCURVE",
"359 262 CURVE SMOOTH",
"359 394 OFFCURVE",
"641 311 OFFCURVE",
"641 532 CURVE SMOOTH",
"641 668 OFFCURVE",
"495 721 OFFCURVE",
"336 721 CURVE SMOOTH",
"205 721 OFFCURVE",
"117 685 OFFCURVE",
"40 622 CURVE",
"99 507 LINE",
"150 571 OFFCURVE",
"223 611 OFFCURVE",
"290 611 CURVE SMOOTH",
"348 611 OFFCURVE",
"390 581 OFFCURVE",
"390 536 CURVE SMOOTH",
"390 447 OFFCURVE",
"226 472 OFFCURVE",
"226 307 CURVE SMOOTH",
"226 284 OFFCURVE",
"232 257 OFFCURVE",
"245 226 CURVE"
);
},
{
closed = 1;
nodes = (
"367 -2 OFFCURVE",
"404 35 OFFCURVE",
"404 81 CURVE SMOOTH",
"404 127 OFFCURVE",
"367 164 OFFCURVE",
"321 164 CURVE SMOOTH",
"275 164 OFFCURVE",
"238 127 OFFCURVE",
"238 81 CURVE SMOOTH",
"238 35 OFFCURVE",
"275 -2 OFFCURVE",
"321 -2 CURVE SMOOTH"
);
}
);
width = 681;
}
);
unicode = 003F;
},
{
glyphname = hyphen;
lastChange = "2020-07-27 15:29:26 +0000";
layers = (
{
layerId = "CA145713-800E-4AD6-B2AC-DB97E56B9903";
paths = (
{
closed = 1;
nodes = (
"282 275 LINE",
"282 457 LINE",
"40 457 LINE",
"40 275 LINE"
);
}
);
width = 322;
}
);
unicode = 002D;
},
{
glyphname = quotedblleft;
lastChange = "2020-07-27 15:29:26 +0000";
layers = (
{
layerId = "CA145713-800E-4AD6-B2AC-DB97E56B9903";
paths = (
{
closed = 1;
nodes = (
"389 600 OFFCURVE",
"426 637 OFFCURVE",
"426 683 CURVE SMOOTH",
"426 729 OFFCURVE",
"389 766 OFFCURVE",
"343 766 CURVE SMOOTH",
"339 766 OFFCURVE",
"335 766 OFFCURVE",
"331 765 CURVE",
"329 775 OFFCURVE",
"328 786 OFFCURVE",
"328 797 CURVE SMOOTH",
"328 815 OFFCURVE",
"331 833 OFFCURVE",
"335 847 CURVE",
"295 826 OFFCURVE",
"253 782 OFFCURVE",
"253 703 CURVE SMOOTH",
"253 634 OFFCURVE",
"295 600 OFFCURVE",
"343 600 CURVE SMOOTH"
);
},
{
closed = 1;
nodes = (
"176 600 OFFCURVE",
"213 637 OFFCURVE",
"213 683 CURVE SMOOTH",
"213 729 OFFCURVE",
"176 766 OFFCURVE",
"130 766 CURVE SMOOTH",
"126 766 OFFCURVE",
"122 766 OFFCURVE",
"118 765 CURVE",
"116 775 OFFCURVE",
"115 786 OFFCURVE",
"115 797 CURVE SMOOTH",
"115 815 OFFCURVE",
"118 833 OFFCURVE",
"122 847 CURVE",
"82 826 OFFCURVE",
"40 782 OFFCURVE",
"40 703 CURVE SMOOTH",
"40 634 OFFCURVE",
"82 600 OFFCURVE",
"130 600 CURVE SMOOTH"
);
}
);
width = 436;
}
);
unicode = 201C;
},
{
glyphname = quotedblright;
lastChange = "2020-07-27 15:29:26 +0000";
layers = (
{
layerId = "CA145713-800E-4AD6-B2AC-DB97E56B9903";
paths = (
{
closed = 1;
nodes = (
"354 621 OFFCURVE",
"396 665 OFFCURVE",
"396 744 CURVE SMOOTH",
"396 813 OFFCURVE",
"354 847 OFFCURVE",
"306 847 CURVE SMOOTH",
"260 847 OFFCURVE",
"223 810 OFFCURVE",
"223 764 CURVE SMOOTH",
"223 718 OFFCURVE",
"260 681 OFFCURVE",
"306 681 CURVE SMOOTH",
"310 681 OFFCURVE",
"314 681 OFFCURVE",
"318 682 CURVE",
"320 672 OFFCURVE",
"321 661 OFFCURVE",
"321 650 CURVE SMOOTH",
"321 632 OFFCURVE",
"318 614 OFFCURVE",
"314 600 CURVE"
);
},
{
closed = 1;
nodes = (
"141 621 OFFCURVE",
"183 665 OFFCURVE",
"183 744 CURVE SMOOTH",
"183 813 OFFCURVE",
"141 847 OFFCURVE",
"93 847 CURVE SMOOTH",
"47 847 OFFCURVE",
"10 810 OFFCURVE",
"10 764 CURVE SMOOTH",
"10 718 OFFCURVE",
"47 681 OFFCURVE",
"93 681 CURVE SMOOTH",
"97 681 OFFCURVE",
"101 681 OFFCURVE",
"105 682 CURVE",
"107 672 OFFCURVE",
"108 661 OFFCURVE",
"108 650 CURVE SMOOTH",
"108 632 OFFCURVE",
"105 614 OFFCURVE",
"101 600 CURVE"
);
}
);
width = 436;
}
);
unicode = 201D;
},
{
glyphname = quoteleft;
lastChange = "2020-07-27 15:29:26 +0000";
layers = (
{
layerId = "CA145713-800E-4AD6-B2AC-DB97E56B9903";
paths = (
{
closed = 1;
nodes = (
"176 600 OFFCURVE",
"213 637 OFFCURVE",
"213 683 CURVE SMOOTH",
"213 729 OFFCURVE",
"176 766 OFFCURVE",
"130 766 CURVE SMOOTH",
"126 766 OFFCURVE",
"122 766 OFFCURVE",
"118 765 CURVE",
"116 775 OFFCURVE",
"115 786 OFFCURVE",
"115 797 CURVE SMOOTH",
"115 815 OFFCURVE",
"118 833 OFFCURVE",
"122 847 CURVE",
"82 826 OFFCURVE",
"40 782 OFFCURVE",
"40 703 CURVE SMOOTH",
"40 634 OFFCURVE",
"82 600 OFFCURVE",
"130 600 CURVE SMOOTH"
);
}
);
width = 223;
}
);
unicode = 2018;
},
{
glyphname = quoteright;
lastChange = "2020-07-27 15:29:26 +0000";
layers = (
{
layerId = "CA145713-800E-4AD6-B2AC-DB97E56B9903";
paths = (
{
closed = 1;
nodes = (
"141 620 OFFCURVE",
"183 664 OFFCURVE",
"183 743 CURVE SMOOTH",
"183 812 OFFCURVE",
"141 846 OFFCURVE",
"93 846 CURVE SMOOTH",
"47 846 OFFCURVE",
"10 809 OFFCURVE",
"10 763 CURVE SMOOTH",
"10 717 OFFCURVE",
"47 680 OFFCURVE",
"93 680 CURVE SMOOTH",
"97 680 OFFCURVE",
"101 680 OFFCURVE",
"105 681 CURVE",
"107 671 OFFCURVE",
"108 660 OFFCURVE",
"108 649 CURVE SMOOTH",
"108 631 OFFCURVE",
"105 613 OFFCURVE",
"101 599 CURVE"
);
}
);
width = 223;
}
);
unicode = 2019;
},
{
glyphname = quotedbl;
lastChange = "2020-07-27 15:29:26 +0000";
layers = (
{
layerId = "CA145713-800E-4AD6-B2AC-DB97E56B9903";
paths = (
{
closed = 1;
nodes = (
"378 613 LINE",
"403 842 LINE",
"256 842 LINE",
"281 613 LINE"
);
},
{
closed = 1;
nodes = (
"162 613 LINE",
"187 842 LINE",
"40 842 LINE",
"65 613 LINE"
);
}
);
width = 443;
}
);
unicode = 0022;
},
{
glyphname = quotesingle;
lastChange = "2020-07-27 15:29:26 +0000";
layers = (
{
layerId = "CA145713-800E-4AD6-B2AC-DB97E56B9903";
paths = (
{
closed = 1;
nodes = (
"162 613 LINE",
"187 842 LINE",
"40 842 LINE",
"65 613 LINE"
);
}
);
width = 227;
}
);
unicode = 0027;
},
